HIERARCHY
ROOT Hips
{
	OFFSET	0.00	0.00	0.00
	CHANNELS 6 Xposition Yposition Zposition Zrotation Xrotation Yrotation
	JOINT LeftUpLeg
	{
		OFFSET	 0.126116	-0.065224	 0.014019
		CHANNELS 3 Zrotation Xrotation Yrotation
		JOINT LeftLeg
		{
			OFFSET	 0.000000	 0.569914	 0.000000
			CHANNELS 3 Zrotation Xrotation Yrotation
			JOINT LeftFoot
			{
				OFFSET	 0.000000	 0.544423	 0.000000
				CHANNELS 3 Zrotation Xrotation Yrotation
				JOINT LeftToeBase
				{
					OFFSET	 0.000000	 0.207117	 0.000000
					CHANNELS 3 Zrotation Xrotation Yrotation
					End Site
					{
						OFFSET	 0.000000	 0.207117	 0.000000
					}
				}
			}
		}
	}
	JOINT RightUpLeg
	{
		OFFSET	-0.124023	-0.065224	 0.008373
		CHANNELS 3 Zrotation Xrotation Yrotation
		JOINT RightLeg
		{
			OFFSET	 0.000000	 0.570047	 0.000000
			CHANNELS 3 Zrotation Xrotation Yrotation
			JOINT RightFoot
			{
				OFFSET	 0.000000	 0.544354	 0.000000
				CHANNELS 3 Zrotation Xrotation Yrotation
				JOINT RightToeBase
				{
					OFFSET	 0.000000	 0.207540	 0.000000
					CHANNELS 3 Zrotation Xrotation Yrotation
					End Site
					{
						OFFSET	 0.000000	 0.207540	 0.000000
					}
				}
			}
		}
	}
	JOINT Spine
	{
		OFFSET	 0.000184	 0.117403	 0.007763
		CHANNELS 3 Zrotation Xrotation Yrotation
		JOINT Spine1
		{
			OFFSET	 0.000000	 0.137269	 0.000000
			CHANNELS 3 Zrotation Xrotation Yrotation
			JOINT Spine2
			{
				OFFSET	 0.000000	 0.156879	 0.000000
				CHANNELS 3 Zrotation Xrotation Yrotation
				JOINT LeftShoulder
				{
					OFFSET	 0.080501	 0.160143	 0.002496
					CHANNELS 3 Zrotation Xrotation Yrotation
					JOINT LeftArm
					{
						OFFSET	 0.000000	 0.164363	 0.000000
						CHANNELS 3 Zrotation Xrotation Yrotation
						JOINT LeftForeArm
						{
							OFFSET	 0.000000	 0.364576	 0.000000
							CHANNELS 3 Zrotation Xrotation Yrotation
							JOINT LeftHand
							{
								OFFSET	 0.000000	 0.360812	 0.000000
								CHANNELS 3 Zrotation Xrotation Yrotation
								JOINT LeftHandIndex1
								{
									OFFSET	 0.000000	 0.086006	 0.000000
									CHANNELS 3 Zrotation Xrotation Yrotation
									JOINT LeftHandIndex2
									{
										OFFSET	 0.000000	 0.047237	 0.000000
										CHANNELS 3 Zrotation Xrotation Yrotation
										JOINT LeftHandIndex3
										{
											OFFSET	-0.004284	 0.038165	 0.000551
											CHANNELS 3 Zrotation Xrotation Yrotation
											End Site
											{
												OFFSET	-0.004284	 0.038165	 0.000551
											}
										}
									}
								}
							}
						}
					}
				}
				JOINT Neck
				{
					OFFSET	 0.000000	 0.176489	 0.000000
					CHANNELS 3 Zrotation Xrotation Yrotation
					JOINT Head
					{
						OFFSET	 0.000000	 0.077941	 0.001747
						CHANNELS 3 Zrotation Xrotation Yrotation
						End Site
						{
							OFFSET	 0.000000	 0.077941	 0.001747
						}
					}
				}
				JOINT RightShoulder
				{
					OFFSET	-0.080363	 0.159706	-0.000306
					CHANNELS 3 Zrotation Xrotation Yrotation
					JOINT RightArm
					{
						OFFSET	 0.000000	 0.164196	 0.000000
						CHANNELS 3 Zrotation Xrotation Yrotation
						JOINT RightForeArm
						{
							OFFSET	 0.000000	 0.365611	 0.000000
							CHANNELS 3 Zrotation Xrotation Yrotation
							JOINT RightHand
							{
								OFFSET	 0.000000	 0.360648	 0.000000
								CHANNELS 3 Zrotation Xrotation Yrotation
								JOINT RightHandIndex1
								{
									OFFSET	 0.000000	 0.069977	 0.000000
									CHANNELS 3 Zrotation Xrotation Yrotation
									JOINT RightHandIndex2
									{
										OFFSET	 0.000000	 0.052305	 0.000000
										CHANNELS 3 Zrotation Xrotation Yrotation
										JOINT RightHandIndex3
										{
											OFFSET	 0.009002	 0.042196	 0.000782
											CHANNELS 3 Zrotation Xrotation Yrotation
											End Site
											{
												OFFSET	 0.009002	 0.042196	 0.000782
											}
										}
									}
								}
							}
						}
					}
				}
			}
		}
	}
}
MOTION
Frames:    4
Frame Time: 0.03333334
-0.037437	 1.180899	-3.157686	-5.195822	 1.332208	 176.747100	 167.070500	 30.744060	 3.934024	 3.939357	-27.398260	 0.358198	-13.692970	 57.788140	 18.775820	 1.414966	 30.014090	-2.766859	-178.954500	-15.022780	-12.305580	-4.075441	-43.384970	 2.774964	-7.579944	 43.712830	 5.209498	-12.376550	 68.577180	 18.686900	-5.380731	 6.808854	 16.167510	-4.028267	 6.133758	 6.425020	 2.866907	-7.814701	-11.712960	-120.976400	 4.104030	 92.369540	-46.906420	 54.147120	 42.113580	 24.530540	-0.915202	-8.324109	 6.795432	-15.606470	 59.141920	 4.346187	 20.096450	-1.513631	-5.872916	 26.192560	 2.904052	 5.635049	 11.570690	-0.056317	-0.110507	-5.258928	-0.684135	-2.045405	-2.556050	-7.607622	 119.314900	 1.077822	-91.372430	-26.162370	 45.727470	 7.239416	-15.344210	-0.355993	 8.481967	-2.560220	-31.131990	 23.402490	-2.809391	 25.746580	 1.516519	 16.069340	 45.781330	-12.169690	-8.531008	 23.444130	-1.191286
-0.040873	 1.188152	-3.240909	-5.047869	 1.715597	 178.575100	 165.340800	 27.757540	 6.196020	 4.535013	-30.817480	 0.314779	-14.616010	 62.321930	 20.535710	 1.391609	 29.715360	-2.756392	-176.657400	-7.760681	-11.691020	-6.028944	-54.400410	 1.387185	-9.600767	 52.518540	 7.822860	-5.242269	 55.501730	 9.855399	-4.847592	 7.336091	 14.450640	-4.012407	 5.867552	 6.079319	 3.029930	-7.347409	-11.984100	-121.357600	 4.651120	 92.659080	-34.243310	 56.555370	 32.580000	 21.957460	-0.782734	-8.652159	 8.931893	-13.438080	 57.120210	 4.393520	 20.304880	-1.586283	-5.865894	 24.959820	 2.763566	 5.546271	 9.434918	-0.085803	-0.130692	-5.184898	-0.593141	-2.297409	-2.384288	-7.364857	 119.224400	 0.905532	-91.287090	-16.674890	 46.589710	 1.807314	-22.526560	-0.615393	 8.665558	 2.379749	-25.959740	 23.827410	-2.784554	 26.277680	 1.506004	 16.158250	 46.102910	-12.303300	-8.529098	 23.969260	-1.226251
-0.043066	 1.197583	-3.305496	-4.874554	 2.123367	-179.534500	 164.232400	 24.439680	 8.156885	 4.875320	-32.667730	 0.278490	-15.633040	 65.528980	 22.058440	 1.367651	 29.407190	-2.745773	-174.512100	 1.011057	-11.791860	-8.921944	-64.134000	-0.703455	-11.017040	 58.799640	 9.700660	-2.452065	 41.720750	 5.180244	-4.240397	 7.865758	 12.605320	-3.872686	 5.470079	 5.656123	 3.144508	-6.807314	-12.236260	-121.754100	 5.213511	 92.961890	-11.868400	 58.113730	 14.677720	 11.766320	-0.268496	-9.084927	 14.286730	-10.656010	 54.265570	 4.442713	 20.519840	-1.661527	-5.862180	 23.688010	 2.620225	 5.454012	 7.231205	-0.119556	-0.151637	-5.108561	-0.499255	-2.558429	-2.207708	-7.106340	 119.131400	 0.727649	-91.199330	-7.195018	 46.881810	-3.716471	-30.135290	-0.875536	 8.812620	 7.759135	-20.477650	 23.603010	-2.758696	 26.825580	 1.494834	 16.251670	 46.434510	-12.442710	-8.526753	 24.510990	-1.262493
-0.044596	 1.206487	-3.360137	-4.680086	 2.408648	-177.928600	 163.747900	 21.134860	 9.587600	 4.945018	-33.037360	 0.493502	-15.674530	 67.749310	 22.403870	 1.360001	 29.308410	-2.742408	-173.269300	 7.147950	-12.344490	-11.030850	-68.545740	-2.129956	-11.456290	 63.172040	 10.520610	-1.584954	 32.113780	 2.986482	-3.628781	 8.272102	 10.961300	-3.790977	 5.130752	 5.284455	 3.274857	-6.306176	-12.469430	-122.008800	 5.677526	 93.210530	-2.958582	 56.795940	 8.320319	 11.881190	-0.265031	-9.335841	 16.356700	-8.654857	 50.885750	 4.499129	 20.534160	-1.714108	-5.861697	 22.701740	 2.510064	 5.383496	 5.561221	-0.147411	-0.167483	-5.032101	-0.408420	-2.723520	-2.082287	-6.875018	 119.035300	 0.563415	-91.118200	-1.257778	 47.243920	-7.052925	-32.948960	-0.962834	 9.006608	 10.159210	-16.096010	 22.991740	-2.728123	 27.212380	 1.480688	 16.315910	 46.658920	-12.538020	-8.524817	 24.902380	-1.288790
